<svg width="30" height="30" viewBox="0 0 30 30" fill="none" xmlns="http://www.w3.org/2000/svg">
<path d="M23.2629 6.57305C21.8484 4.14844 19.9125 2.8125 17.8125 2.8125H12.1875C10.0875 2.8125 8.15156 4.14844 6.73711 6.57305C5.41523 8.83828 4.6875 11.8359 4.6875 15C4.6875 18.1641 5.41523 21.1617 6.73711 23.427C8.15156 25.8516 10.0875 27.1875 12.1875 27.1875H17.8125C19.9125 27.1875 21.8484 25.8516 23.2629 23.427C24.5848 21.1617 25.3125 18.1641 25.3125 15C25.3125 11.8359 24.5848 8.83828 23.2629 6.57305ZM23.4129 14.0625H19.6629C19.5896 12.1387 19.2066 10.2393 18.5285 8.4375H22.1133C22.8305 10.0055 23.3039 11.9531 23.4129 14.0625ZM20.9988 6.5625H17.632C17.2404 5.88318 16.7683 5.25363 16.2258 4.6875H17.8125C18.9844 4.6875 20.0859 5.39062 20.9988 6.5625ZM17.8125 25.3125H16.2293C16.7718 24.7464 17.244 24.1168 17.6355 23.4375H21.0023C20.0859 24.6094 18.9844 25.3125 17.8125 25.3125ZM22.1133 21.5625H18.5297C19.2078 19.7607 19.5908 17.8613 19.6641 15.9375H23.4141C23.3039 18.0469 22.8305 19.9945 22.1133 21.5625Z" fill="#E8AE51"/>
</svg>
