<svg width="683" height="152" viewBox="0 0 683 152" fill="none" xmlns="http://www.w3.org/2000/svg">
<path d="M127.212 40.9701C121.09 50.6163 110.224 56.8333 98.8959 58.1263C91.0008 59.0277 82.9105 57.5405 75.7341 54.132C69.8949 51.3564 63.0748 55.3427 62.5863 61.805C62.2436 66.3396 62.3049 70.8838 62.795 75.2498C62.9687 76.7875 61.9145 78.19 60.3958 78.4626C60.3759 78.4666 60.3567 78.4699 60.3368 78.473C58.6531 78.7775 57.0905 77.5664 56.9048 75.8605C56.2391 69.746 56.9805 66.4531 56.4458 62.3989C55.7665 57.2482 50.562 54.0402 45.8877 56.2787C40.1433 59.0287 33.661 60.2395 27.3301 59.5362C18.2461 58.5268 9.52069 53.5687 4.58985 45.8509C-0.340978 38.1323 -1.75936 27.189 2.62162 19.1435C4.5771 15.5511 8.00428 12.8099 10.3327 13.0001C12.9072 13.2103 15.046 16.1042 22.1713 17.1016C32.6968 18.5745 40.6302 19.5815 47.9244 23.9403C52.79 26.8485 56.3845 31.3919 58.0467 36.5563C58.4683 37.8654 56.8889 38.8884 55.8801 37.9565C51.1739 33.6137 45.8893 30.8756 40.4898 28.9368C34.9988 26.9636 29.2034 25.991 23.4287 26.0469C22.7506 26.0533 22.6932 27.0507 23.3666 27.1371C29.3166 27.8987 35.1774 29.2493 40.6246 31.7244C45.1259 33.7696 52.8067 37.7064 57.453 47.3422C57.8698 48.2069 58.2626 49.1172 58.626 50.077C59.3615 47.4892 60.2588 45.1476 61.2739 43.0265C67.0343 30.9891 76.6011 26.0501 82.2085 23.4823C88.9952 20.3743 96.3006 18.668 103.72 17.6954C104.56 17.5859 104.485 16.3416 103.64 16.336C96.4353 16.2873 89.2087 17.522 82.3662 20.0036C75.6377 22.4427 69.0558 25.8784 63.2015 31.3129C61.9457 32.4789 59.9727 31.209 60.4938 29.5739C62.5481 23.126 67.0151 17.4453 73.0743 13.7986C82.1567 8.33529 92.0495 7.04941 105.174 5.1721C114.059 3.9014 116.716 0.284256 119.928 0.0125378C122.831 -0.233588 127.116 3.17335 129.57 7.64721C135.064 17.6665 133.335 31.3239 127.212 40.9701Z" fill="#59CC01"/>
<g clip-path="url(#clip0_81_6088)">
<path fill-rule="evenodd" clip-rule="evenodd" d="M238.52 6.43198V7.18698C240.572 7.64516 242.368 8.87864 243.533 10.6298C244.68 12.3512 245.254 14.737 245.254 17.8174C245.254 21.0488 244.741 24.3104 243.744 27.6324C242.603 31.2997 241.159 34.8655 239.426 38.293L237.372 42.823L227.285 18.361C226.433 16.3051 225.874 14.1398 225.624 11.9284C225.624 9.27078 227.074 7.70038 230.033 7.18698V6.43198H199.924V7.18698C201.072 7.39838 202.068 7.76078 202.914 8.21378C203.729 8.69698 204.545 9.51238 205.3 10.6902C206.024 11.868 206.87 13.5894 207.806 15.8544L212.638 27.119L204.122 44.0914L191.438 14.6162C191.1 14.0482 190.836 13.4393 190.653 12.8042C190.517 12.3224 190.446 11.8248 190.441 11.3244C190.441 10.4486 190.743 9.63318 191.347 8.90838C191.951 8.18358 192.857 7.60978 194.005 7.15678V6.40178H163.322V7.15678C165.738 7.88158 167.942 9.27078 169.875 11.264C171.838 13.2572 173.741 16.3376 175.613 20.4448L195.092 64.0234H195.938L213.484 28.9914L228.523 63.9932H229.369L247.247 25.2768C249.166 20.8619 251.577 16.6779 254.435 12.8042C256.243 10.3884 258.604 8.4415 261.321 7.12658V6.37158H238.52V6.40178V6.43198Z" fill="#32302F"/>
<path d="M287.685 45.5715C285.722 50.5243 281.434 53.0007 274.79 53.0007C272.977 53.0939 271.166 52.7971 269.478 52.1302C267.79 51.4633 266.264 50.4419 265.005 49.1351C262.71 46.6587 261.502 42.9441 261.381 38.0517H288.259V37.5383C288.259 34.0955 287.353 31.0755 285.601 28.5085C283.794 25.9068 281.337 23.8242 278.474 22.4685C275.454 21.0491 272.132 20.3243 268.387 20.3243C264.548 20.2807 260.762 21.2272 257.395 23.0725C253.966 24.9316 251.12 27.7057 249.174 31.0861C247.228 34.4664 246.258 38.3204 246.372 42.2193C246.372 46.2963 247.278 49.9203 249.09 53.0611C250.895 56.1824 253.529 58.7432 256.7 60.4601C259.931 62.2721 263.646 63.1177 267.783 63.1177C273.34 63.1177 277.87 61.6983 281.434 58.7991C285.255 55.433 287.786 50.8416 288.591 45.8131L287.685 45.5715ZM263.133 25.4885C264.31 22.8309 266.002 21.4719 268.267 21.4719C269.023 21.4571 269.769 21.6454 270.428 22.0172C271.087 22.389 271.633 22.9307 272.011 23.5859C272.404 24.1899 272.736 24.9147 273.038 25.6999C273.31 26.5153 273.521 27.6025 273.642 28.9615C273.793 30.3507 273.854 32.1627 273.854 34.4579V36.5417H261.411C261.411 34.0049 261.562 31.8909 261.834 30.1997C262.136 28.2971 262.589 26.7267 263.133 25.4885ZM335.431 56.4435C335.162 56.6881 334.825 56.8459 334.465 56.8965L333.529 56.9569C333.097 56.9854 332.666 56.886 332.29 56.6712C331.914 56.4563 331.61 56.1356 331.415 55.7489C330.992 54.9335 330.781 53.3329 330.781 50.9169V31.3473C330.781 27.4213 329.935 24.6127 328.274 22.8309C326.613 21.0189 323.955 20.1431 320.301 20.1431C313.238 20.2677 306.284 21.9159 299.916 24.9751C297.292 26.1238 294.906 27.7523 292.88 29.7769C291.408 31.2345 290.554 33.2027 290.494 35.2733C290.494 37.0249 291.098 38.3839 292.245 39.4107C293.423 40.4677 294.963 40.9811 296.836 40.9811C297.863 40.9716 298.878 40.7524 299.818 40.3369C300.758 39.9215 301.603 39.3186 302.302 38.5651C303.137 37.6689 303.782 36.6127 304.197 35.4604C304.612 34.308 304.789 33.0835 304.718 31.8607V30.4413C304.718 27.8743 305.322 25.9415 306.439 24.6127C307.557 23.3141 308.976 22.6497 310.637 22.6497C311.966 22.6497 313.053 22.9819 313.929 23.6161C314.775 24.2503 315.439 25.3677 315.832 26.9381C316.254 28.4783 316.436 30.6527 316.436 33.4613V37.7195C312.238 39.0181 308.523 40.2563 305.262 41.5247C301.577 42.9441 298.497 44.3333 296.081 45.7527C292.245 47.8969 290.343 50.7055 290.343 54.0879C290.343 56.7757 291.4 58.9199 293.544 60.5205C295.658 62.1513 298.467 62.9365 301.909 62.9365C304.97 63.0021 308.003 62.3397 310.758 61.0037C312.872 59.9467 314.835 58.2857 316.647 55.9603C317.07 58.3159 317.855 60.0071 319.063 61.0943C320.587 62.4269 322.567 63.1194 324.59 63.0271C326.803 63.0526 328.986 62.5121 330.932 61.4567C332.902 60.3662 334.605 58.8495 335.915 57.0173L335.431 56.4435ZM311.634 57.1985C308.463 57.1985 306.892 55.0241 306.892 50.6753C306.892 47.7761 307.768 45.3903 309.49 43.5179C310.939 41.9173 313.295 40.4979 316.466 39.2295V51.3095C316.466 53.1819 316.013 54.6315 315.137 55.6281C314.231 56.6851 313.083 57.1985 311.634 57.1985Z" fill="#32302F"/>
<path fill-rule="evenodd" clip-rule="evenodd" d="M335.431 60.9435C337.032 60.8227 338.21 60.2187 338.965 59.0711C339.72 57.9235 340.082 55.6283 340.082 52.1553V17.9689C340.082 14.0429 339.569 11.2645 338.512 9.63373C338.052 8.85573 337.392 8.21544 336.601 7.7798C335.809 7.34417 334.915 7.12918 334.012 7.15733V6.25133C340.903 4.72097 347.707 2.82577 354.397 0.57373V53.8465C354.397 56.5645 354.699 58.3765 355.273 59.3429C355.877 60.3093 356.873 60.8529 358.293 60.9435V61.8495H335.431V60.9435ZM365.541 60.7925C363.88 59.2221 363.034 56.5645 363.034 52.8499V24.8243H356.873L356.722 24.1599C358.897 23.1633 361.192 21.7137 363.668 19.8111C368.756 15.9083 373.252 11.2902 377.017 6.10033L377.772 6.37213V21.3211H387.073L385.08 24.8545H377.802V50.2527C377.802 52.7291 378.164 54.4807 378.889 55.5377C379.614 56.5947 380.671 57.1383 382.06 57.1383C382.725 57.1383 383.389 57.0477 384.084 56.8665C384.778 56.7155 385.412 56.4135 385.956 56.0209L386.439 56.7155C384.023 58.7691 381.698 60.3395 379.554 61.4569C377.379 62.5743 375.114 63.1481 372.728 63.1481C370.129 63.3076 367.568 62.4645 365.571 60.7925H365.541Z" fill="#32302F"/>
<path fill-rule="evenodd" clip-rule="evenodd" d="M431.135 59.1926C430.468 57.2008 430.201 55.0968 430.35 53.0016V31.7106C430.35 24.0398 427.239 20.1742 421.048 20.1742C419.236 20.1742 417.636 20.3856 416.156 20.8386C414.437 21.4061 412.809 22.2199 411.324 23.2546C409.693 24.372 407.7 25.9122 405.284 27.8752V0.604603C398.602 2.84674 391.808 4.74181 384.929 6.2822V7.1882C386.862 7.1882 388.372 8.0338 389.429 9.6646C390.486 11.3256 390.999 14.104 390.999 17.9998V51.3406C390.999 55.0552 390.607 57.5618 389.791 58.8604C389.006 60.159 387.738 60.8234 386.016 60.9744V61.8804H409.15V60.9744C407.76 60.8234 406.764 60.2496 406.19 59.1926C405.456 57.216 405.157 55.1043 405.314 53.0016V29.3248C406.552 28.298 407.67 27.5128 408.636 27.09C409.754 26.5766 410.75 26.335 411.656 26.335C413.076 26.335 414.193 26.939 415.008 28.147C415.824 29.355 416.216 31.4086 416.216 34.3682V52.911C416.216 55.0854 416.096 56.7464 415.884 57.8638C415.673 58.951 415.28 59.7362 414.767 60.159C414.223 60.5516 413.438 60.8234 412.381 60.9442V61.8502H434.004V60.9442C432.615 60.8536 431.679 60.2496 431.135 59.1926ZM449.497 62.5146L444.061 61.4576C442.641 61.1482 441.195 60.9762 439.742 60.9442C438.523 60.9343 437.32 61.2247 436.239 61.7898V43.0658L437.085 42.8846C439.46 46.7456 442.125 50.4204 445.057 53.8774C447.473 56.5954 449.678 58.5282 451.701 59.6456C453.785 60.7932 455.809 61.367 457.802 61.367C459.735 61.367 461.154 60.9442 462.03 60.0684C462.936 59.1926 463.359 58.045 463.359 56.5954C463.359 54.8136 462.755 53.3942 461.577 52.3674C459.663 50.8838 457.521 49.7211 455.235 48.9246L449.316 46.569C445.65 45.3137 442.264 43.3543 439.35 40.8008C438.414 39.8449 437.681 38.7106 437.193 37.4654C436.706 36.2202 436.474 34.8896 436.511 33.5528C436.511 31.016 437.145 28.7812 438.474 26.7578C439.867 24.6691 441.811 23.007 444.091 21.956C446.507 20.748 449.436 20.144 452.819 20.144C454.601 20.144 456.352 20.295 458.104 20.5668C459.855 20.8688 461.426 21.1104 462.815 21.3822C464.204 21.6238 465.231 21.7446 465.956 21.7446C466.734 21.7848 467.51 21.6399 468.221 21.3218L469.368 36.6332L468.613 36.8144C466.13 32.5696 463.048 28.7046 459.463 25.3384C457.321 23.2243 454.492 21.949 451.49 21.7446C449.829 21.7446 448.47 22.1674 447.413 23.013C446.356 23.919 445.843 25.0666 445.843 26.5766C445.843 28.2074 446.356 29.5362 447.443 30.5932C448.53 31.6502 450.342 32.6166 452.879 33.432L459.886 35.7876C463.375 36.7391 466.605 38.4628 469.338 40.831C471.241 42.7638 472.207 45.21 472.207 48.1394C472.305 50.1825 471.94 52.2213 471.14 54.1037C470.34 55.9862 469.125 57.6638 467.587 59.0114C464.134 61.8144 459.768 63.2446 455.325 63.028C453.371 63.0141 451.421 62.8322 449.497 62.4844V62.5146ZM483.744 17.5468C484.887 17.5549 486.02 17.3352 487.077 16.9006C488.134 16.466 489.094 15.8252 489.901 15.0155C490.708 14.2058 491.346 13.2436 491.776 12.1848C492.207 11.1261 492.423 9.99219 492.411 8.8492C492.411 6.5842 491.626 4.5608 490.025 2.8394C489.228 1.97852 488.254 1.30058 487.169 0.852233C486.085 0.403886 484.916 0.19577 483.744 0.242203C482.234 0.242203 480.844 0.665003 479.546 1.4502C478.247 2.2656 477.19 3.3226 476.375 4.6514C475.392 6.27597 474.992 8.18646 475.239 10.0689C475.485 11.9514 476.365 13.6939 477.734 15.01C479.485 16.7012 481.479 17.5468 483.774 17.5468H483.744Z" fill="#32302F"/>
<path fill-rule="evenodd" clip-rule="evenodd" d="M566.824 59.3733C566.22 58.4069 565.948 56.5949 565.948 53.8467V31.7101C565.948 24.0393 562.837 20.1737 556.646 20.1737C554.925 20.1737 553.234 20.4455 551.603 20.9891C549.972 21.5025 548.281 22.3481 546.469 23.5259C544.899 24.5527 543.147 25.9117 541.154 27.5425C540.94 25.6223 540.026 23.8481 538.587 22.5595C536.698 20.9247 534.257 20.0715 531.762 20.1737C529.044 20.1737 526.356 20.8079 523.698 22.1065C521.282 23.2541 518.896 25.0057 516.45 27.3311V20.1435C512.056 21.84 507.592 23.3513 503.072 24.6735L497.183 26.3345V27.1801C498.995 27.3311 500.293 28.0861 501.048 29.4149C501.803 30.7437 502.166 33.3409 502.166 37.2065V53.8165C502.166 56.5345 501.682 58.3465 500.656 59.4035C499.659 60.4303 498.451 60.9437 497.001 60.9437C495.28 60.9437 493.981 60.4303 493.136 59.4035C492.26 58.3767 491.837 56.5043 491.837 53.8467V19.9321C488.757 21.1703 485.495 22.2877 482.022 23.3447C478.579 24.3715 475.076 25.3379 471.452 26.2137V27.0593C473.687 27.2103 475.257 28.1163 476.194 29.7773C477.16 31.4081 477.613 34.1563 477.613 37.9313V51.3401C477.613 54.9037 477.22 57.3801 476.435 58.7391C475.68 60.0981 474.412 60.8531 472.63 60.9437V61.8497H520.286V60.9437C519.692 60.8984 519.118 60.7099 518.613 60.3944C518.108 60.0788 517.687 59.6455 517.386 59.1317C516.657 57.4386 516.346 55.5948 516.48 53.7561V28.9921C517.477 28.1465 518.383 27.4821 519.198 27.1197C520.174 26.6695 521.234 26.4327 522.309 26.4251C523.91 26.4251 525.118 26.9687 525.903 28.1163C526.658 29.2639 527.05 31.3477 527.05 34.3677V53.7561C527.05 56.4741 526.748 58.3163 526.175 59.2525C525.601 60.2189 524.665 60.7625 523.306 60.9437V61.8497H545.11V60.9437C543.66 60.7625 542.664 60.2491 542.09 59.3431C541.546 58.4371 541.275 56.5949 541.275 53.7561V28.9921C542.332 28.0861 543.268 27.3915 544.113 26.8781C545.06 26.2666 546.158 25.9318 547.284 25.9117C548.704 25.9117 549.851 26.5157 550.637 27.7841C551.452 29.0525 551.845 31.2269 551.845 34.3677V53.7561C551.845 56.6553 551.603 58.5277 551.09 59.4035C550.606 60.2793 549.58 60.7625 548.039 60.9437V61.8497H570.085V60.9437C568.485 60.8531 567.398 60.3397 566.824 59.3733Z" fill="#32302F"/>
<path d="M614.661 31.951C614.158 29.5953 613.125 27.3851 611.641 25.4882C610.361 23.7857 608.7 22.407 606.791 21.463C604.882 20.5189 602.778 20.0357 600.648 20.0522C598.37 20.0392 596.115 20.5129 594.034 21.4414C592.252 22.2568 590.38 23.4648 588.417 25.0654V20.0824C581.748 22.4654 574.976 24.5513 568.122 26.3338V27.0888C569.663 27.2398 570.871 27.6324 571.747 28.2666C572.592 28.8706 573.226 29.8672 573.619 31.2866C574.011 32.6758 574.193 34.6086 574.193 37.1152V65.3824C574.193 68.4024 573.921 70.6976 573.438 72.3284C572.955 73.929 572.199 75.0464 571.203 75.7108C570.067 76.4023 568.784 76.8162 567.458 76.9188V77.8248H594.638V76.9188C592.313 76.7074 590.712 76.0128 589.806 74.835C588.87 73.6572 588.417 71.4526 588.417 68.2212V60.5504C589.504 61.3054 590.531 61.8792 591.588 62.2114C595.639 63.3128 599.942 63.0366 603.819 61.4262C606.133 60.447 608.205 58.9729 609.889 57.1076C611.762 55.0162 613.199 52.5728 614.117 49.92C615.155 46.9406 615.666 43.8032 615.627 40.6486C615.627 37.4474 615.325 34.5482 614.661 31.951ZM598.141 56.2016C596.601 59.0404 594.668 60.4296 592.403 60.4296C591.52 60.4585 590.641 60.2828 589.836 59.9162C589.329 59.6469 588.853 59.3228 588.417 58.9498V26.7566C590.259 25.307 591.86 24.5822 593.158 24.5822C595.272 24.5822 596.994 26.0016 598.383 28.8102C599.772 31.6188 600.497 36.0582 600.497 42.068C600.497 48.6214 599.681 53.3326 598.141 56.2016Z" fill="#32302F"/>
<path fill-rule="evenodd" clip-rule="evenodd" d="M615.174 60.9435C616.805 60.8227 617.983 60.2187 618.738 59.0711C619.493 57.9235 619.855 55.6283 619.855 52.1553V17.9689C619.855 14.0429 619.342 11.2645 618.285 9.63373C617.825 8.85573 617.165 8.21544 616.374 7.7798C615.582 7.34417 614.688 7.12918 613.785 7.15733V6.25133C617.264 5.44125 620.728 4.5653 624.174 3.62393C627.737 2.62733 631.059 1.63073 634.14 0.57373V53.8465C634.14 56.5645 634.442 58.3765 635.046 59.3429C635.619 60.3093 636.646 60.8529 638.066 60.9435V61.8495H615.204V60.9435H615.174Z" fill="#32302F"/>
<path d="M678.987 45.5726C677.054 50.5254 672.765 53.0018 666.091 53.0018C664.284 53.0907 662.478 52.7917 660.796 52.125C659.113 51.4582 657.593 50.4392 656.337 49.1362C654.041 46.6598 652.833 42.9452 652.713 38.0528H679.591V37.5394C679.591 34.0966 678.685 31.0766 676.933 28.5096C675.118 25.9039 672.65 23.821 669.776 22.4696C666.626 21.0105 663.19 20.2777 659.719 20.3254C655.733 20.3254 652.048 21.2314 648.696 23.0736C645.267 24.9328 642.421 27.7069 640.475 31.0872C638.529 34.4676 637.559 38.3216 637.673 42.2204C637.673 46.2974 638.579 49.9214 640.421 53.0622C642.219 56.1795 644.842 58.7399 648.002 60.4612C651.233 62.2732 654.917 63.1188 659.085 63.1188C664.611 63.1188 669.172 61.6994 672.705 58.8002C676.527 55.4342 679.057 50.8428 679.862 45.8142L678.987 45.5726ZM654.464 25.4896C655.612 22.832 657.333 21.473 659.598 21.473C660.383 21.473 661.108 21.6542 661.712 21.9864C662.377 22.3186 662.92 22.8622 663.343 23.587C663.736 24.191 664.068 24.9158 664.34 25.701C664.642 26.5164 664.853 27.6036 664.974 28.9626C665.125 30.3518 665.185 32.1638 665.185 34.459V36.5428H652.713C652.743 34.006 652.894 31.892 653.166 30.2008C653.468 28.2982 653.921 26.7278 654.464 25.4896Z" fill="#32302F"/>
</g>
<path d="M474.905 137.486C473.174 137.486 471.483 137.225 469.832 136.701C468.221 136.218 466.711 135.473 465.302 134.466C463.933 133.46 462.725 132.211 461.678 130.722C460.631 129.232 459.825 127.5 459.262 125.527L465.785 122.87C466.067 123.997 466.469 125.064 466.993 126.071C467.557 127.037 468.221 127.883 468.986 128.608C469.791 129.332 470.677 129.916 471.644 130.359C472.65 130.762 473.758 130.963 474.966 130.963C475.972 130.963 476.939 130.842 477.865 130.601C478.791 130.319 479.596 129.916 480.281 129.393C480.965 128.869 481.509 128.225 481.912 127.46C482.355 126.695 482.576 125.809 482.576 124.802C482.576 123.917 482.415 123.111 482.093 122.386C481.771 121.662 481.267 120.997 480.583 120.393C479.898 119.789 478.992 119.225 477.865 118.702C476.737 118.138 475.388 117.575 473.818 117.011L471.1 116.044C469.932 115.642 468.724 115.118 467.476 114.474C466.268 113.789 465.161 112.984 464.154 112.058C463.188 111.092 462.382 109.964 461.738 108.676C461.134 107.387 460.832 105.877 460.832 104.146C460.832 102.535 461.154 101.025 461.798 99.6156C462.483 98.166 463.429 96.8976 464.637 95.8104C465.845 94.7232 467.275 93.8776 468.926 93.2736C470.617 92.6293 472.469 92.3072 474.482 92.3072C476.576 92.3072 478.408 92.6092 479.979 93.2132C481.589 93.777 482.938 94.5018 484.026 95.3876C485.113 96.2735 485.979 97.26 486.623 98.3472C487.307 99.3942 487.811 100.381 488.133 101.307L481.972 103.904C481.771 103.3 481.469 102.696 481.066 102.092C480.704 101.448 480.22 100.884 479.616 100.401C479.012 99.9176 478.288 99.515 477.442 99.1928C476.637 98.8707 475.69 98.7096 474.603 98.7096C473.637 98.7096 472.731 98.8505 471.885 99.1324C471.04 99.374 470.295 99.7364 469.65 100.22C469.046 100.703 468.563 101.267 468.201 101.911C467.838 102.555 467.657 103.26 467.657 104.025C467.657 105.555 468.281 106.803 469.53 107.77C470.818 108.696 472.691 109.582 475.147 110.427L477.865 111.394C479.556 111.957 481.106 112.622 482.516 113.387C483.925 114.152 485.153 115.078 486.2 116.165C487.247 117.212 488.052 118.44 488.616 119.85C489.22 121.259 489.522 122.89 489.522 124.742C489.522 126.997 489.059 128.93 488.133 130.54C487.247 132.111 486.099 133.419 484.69 134.466C483.281 135.513 481.71 136.278 479.979 136.762C478.247 137.245 476.556 137.486 474.905 137.486ZM495.046 106.924H501.388V110.729H501.75C502.556 109.441 503.784 108.333 505.435 107.407C507.086 106.441 509.059 105.958 511.354 105.958C513.246 105.958 515.038 106.36 516.729 107.166C518.461 107.931 519.971 109.018 521.259 110.427C522.548 111.837 523.575 113.508 524.34 115.44C525.105 117.333 525.487 119.427 525.487 121.722C525.487 124.017 525.105 126.131 524.34 128.064C523.575 129.957 522.548 131.607 521.259 133.017C519.971 134.426 518.461 135.533 516.729 136.339C515.038 137.104 513.246 137.486 511.354 137.486C509.059 137.486 507.086 137.023 505.435 136.097C503.784 135.131 502.556 134.003 501.75 132.715H501.388L501.75 136.822V149.566H495.046V106.924ZM510.085 131.265C511.213 131.265 512.3 131.044 513.347 130.601C514.434 130.158 515.36 129.534 516.125 128.728C516.931 127.883 517.575 126.876 518.058 125.708C518.541 124.541 518.783 123.212 518.783 121.722C518.783 120.232 518.541 118.903 518.058 117.736C517.575 116.568 516.931 115.581 516.125 114.776C515.36 113.93 514.434 113.286 513.347 112.843C512.3 112.4 511.213 112.179 510.085 112.179C508.918 112.179 507.81 112.4 506.763 112.843C505.716 113.286 504.79 113.91 503.985 114.716C503.22 115.521 502.596 116.528 502.113 117.736C501.629 118.903 501.388 120.232 501.388 121.722C501.388 123.212 501.629 124.561 502.113 125.769C502.596 126.937 503.22 127.923 503.985 128.728C504.79 129.534 505.716 130.158 506.763 130.601C507.81 131.044 508.918 131.265 510.085 131.265ZM530.265 106.924H536.607V111.394H536.97C537.332 110.629 537.815 109.924 538.419 109.28C539.063 108.595 539.768 108.031 540.533 107.588C541.338 107.105 542.164 106.743 543.01 106.501C543.895 106.219 544.741 106.078 545.546 106.078C546.513 106.078 547.338 106.159 548.023 106.32C548.707 106.481 549.331 106.703 549.895 106.984L547.962 113.206C547.519 113.004 547.016 112.863 546.452 112.783C545.929 112.662 545.285 112.602 544.52 112.602C543.432 112.602 542.426 112.823 541.5 113.266C540.614 113.709 539.828 114.313 539.144 115.078C538.459 115.843 537.916 116.749 537.513 117.796C537.151 118.843 536.97 119.95 536.97 121.118V136.52H530.265V106.924ZM565.448 105.958C567.703 105.958 569.776 106.36 571.669 107.166C573.561 107.931 575.192 109.018 576.561 110.427C577.93 111.837 578.997 113.508 579.762 115.44C580.528 117.373 580.91 119.467 580.91 121.722C580.91 123.977 580.528 126.071 579.762 128.004C578.997 129.936 577.93 131.607 576.561 133.017C575.192 134.426 573.561 135.533 571.669 136.339C569.776 137.104 567.703 137.486 565.448 137.486C563.193 137.486 561.119 137.104 559.226 136.339C557.334 135.533 555.703 134.426 554.334 133.017C552.965 131.607 551.898 129.936 551.133 128.004C550.368 126.071 549.985 123.977 549.985 121.722C549.985 119.467 550.368 117.373 551.133 115.44C551.898 113.508 552.965 111.837 554.334 110.427C555.703 109.018 557.334 107.931 559.226 107.166C561.119 106.36 563.193 105.958 565.448 105.958ZM565.448 131.265C566.575 131.265 567.662 131.044 568.709 130.601C569.756 130.158 570.682 129.534 571.488 128.728C572.333 127.923 572.998 126.937 573.481 125.769C573.964 124.561 574.206 123.212 574.206 121.722C574.206 120.232 573.964 118.903 573.481 117.736C572.998 116.528 572.333 115.521 571.488 114.716C570.682 113.91 569.756 113.286 568.709 112.843C567.662 112.4 566.575 112.179 565.448 112.179C564.32 112.179 563.233 112.4 562.186 112.843C561.139 113.286 560.193 113.91 559.347 114.716C558.542 115.521 557.898 116.528 557.414 117.736C556.931 118.903 556.69 120.232 556.69 121.722C556.69 123.212 556.931 124.561 557.414 125.769C557.898 126.937 558.542 127.923 559.347 128.728C560.193 129.534 561.139 130.158 562.186 130.601C563.233 131.044 564.32 131.265 565.448 131.265ZM606.307 132.534H605.944C605.059 133.943 603.79 135.131 602.139 136.097C600.529 137.023 598.696 137.486 596.643 137.486C592.898 137.486 590.1 136.379 588.247 134.164C586.395 131.909 585.469 128.93 585.469 125.225V106.924H592.173V124.319C592.173 126.896 592.757 128.708 593.925 129.755C595.133 130.762 596.703 131.265 598.636 131.265C599.764 131.265 600.77 131.024 601.656 130.54C602.582 130.057 603.367 129.413 604.012 128.608C604.656 127.762 605.139 126.816 605.461 125.769C605.783 124.682 605.944 123.554 605.944 122.386V106.924H612.649V136.52H606.307V132.534ZM622.947 112.843H617.753V106.924H622.947V97.864H629.651V106.924H636.96V112.843H629.651V126.01C629.651 126.735 629.732 127.4 629.893 128.004C630.054 128.608 630.296 129.111 630.618 129.514C631.302 130.279 632.168 130.661 633.215 130.661C633.859 130.661 634.363 130.621 634.725 130.54C635.087 130.42 635.47 130.259 635.873 130.057L637.926 135.976C637.081 136.299 636.195 136.54 635.269 136.701C634.343 136.903 633.296 137.003 632.128 137.003C630.719 137.003 629.47 136.782 628.383 136.339C627.296 135.896 626.35 135.292 625.544 134.527C623.813 132.795 622.947 130.44 622.947 127.46V112.843Z" fill="url(#paint0_linear_81_6088)"/>
<defs>
<linearGradient id="paint0_linear_81_6088" x1="548.13" y1="113.499" x2="639.133" y2="113.683" gradientUnits="userSpaceOnUse">
<stop stop-color="#1CB0F6"/>
<stop offset="1" stop-color="#A570FF"/>
</linearGradient>
<clipPath id="clip0_81_6088">
<rect width="519.44" height="78.52" fill="white" transform="translate(163.08)"/>
</clipPath>
</defs>
</svg>
